<svg xmlns="http://www.w3.org/2000/svg" xmlns:xlink="http://www.w3.org/1999/xlink" version="1.1" x="0px" y="0px" viewBox="0 0 300 375" style="enable-background:new 0 0 300 300;" xml:space="preserve"><g><path d="M256.5,102c11.8,0,21.5,9.6,21.5,21.5v53.1c0,11.8-9.6,21.5-21.5,21.5H43.5c-11.8,0-21.5-9.6-21.5-21.5v-53.1   c0-11.8,9.6-21.5,21.5-21.5H256.5 M256.5,94H43.5C27.2,94,14,107.2,14,123.5v53.1c0,16.2,13.2,29.5,29.5,29.5h213.1   c16.2,0,29.5-13.2,29.5-29.5v-53.1C286,107.2,272.8,94,256.5,94L256.5,94z"/><g><path d="M262,176h-32c-1.9,0-3.4-1.5-3.4-3.4s1.5-3.4,3.4-3.4h32c1.9,0,3.4,1.5,3.4,3.4S263.9,176,262,176z"/></g><g><path d="M86,146H73.7l8.7-8.7c1.6-1.6,1.6-4.1,0-5.7c-1.6-1.6-4.1-1.6-5.7,0l-8.7,8.7V128c0-2.2-1.8-4-4-4s-4,1.8-4,4v12.3    l-8.7-8.7c-1.6-1.6-4.1-1.6-5.7,0c-1.6,1.6-1.6,4.1,0,5.7l8.7,8.7H42c-2.2,0-4,1.8-4,4s1.8,4,4,4h12.3l-8.7,8.7    c-1.6,1.6-1.6,4.1,0,5.7c0.8,0.8,1.8,1.2,2.8,1.2s2-0.4,2.8-1.2l8.7-8.7V172c0,2.2,1.8,4,4,4s4-1.8,4-4v-12.3l8.7,8.7    c0.8,0.8,1.8,1.2,2.8,1.2c1,0,2-0.4,2.8-1.2c1.6-1.6,1.6-4.1,0-5.7l-8.7-8.7H86c2.2,0,4-1.8,4-4S88.2,146,86,146z"/><path d="M147,146h-12.3l8.7-8.7c1.6-1.6,1.6-4.1,0-5.7c-1.6-1.6-4.1-1.6-5.7,0l-8.7,8.7V128c0-2.2-1.8-4-4-4s-4,1.8-4,4v12.3    l-8.7-8.7c-1.6-1.6-4.1-1.6-5.7,0c-1.6,1.6-1.6,4.1,0,5.7l8.7,8.7H103c-2.2,0-4,1.8-4,4s1.8,4,4,4h12.3l-8.7,8.7    c-1.6,1.6-1.6,4.1,0,5.7c0.8,0.8,1.8,1.2,2.8,1.2s2-0.4,2.8-1.2l8.7-8.7V172c0,2.2,1.8,4,4,4s4-1.8,4-4v-12.3l8.7,8.7    c0.8,0.8,1.8,1.2,2.8,1.2c1,0,2-0.4,2.8-1.2c1.6-1.6,1.6-4.1,0-5.7l-8.7-8.7H147c2.2,0,4-1.8,4-4S149.2,146,147,146z"/><path d="M208,146h-12.3l8.7-8.7c1.6-1.6,1.6-4.1,0-5.7c-1.6-1.6-4.1-1.6-5.7,0l-8.7,8.7V128c0-2.2-1.8-4-4-4s-4,1.8-4,4v12.3    l-8.7-8.7c-1.6-1.6-4.1-1.6-5.7,0c-1.6,1.6-1.6,4.1,0,5.7l8.7,8.7H164c-2.2,0-4,1.8-4,4s1.8,4,4,4h12.3l-8.7,8.7    c-1.6,1.6-1.6,4.1,0,5.7c0.8,0.8,1.8,1.2,2.8,1.2s2-0.4,2.8-1.2l8.7-8.7V172c0,2.2,1.8,4,4,4s4-1.8,4-4v-12.3l8.7,8.7    c0.8,0.8,1.8,1.2,2.8,1.2s2-0.4,2.8-1.2c1.6-1.6,1.6-4.1,0-5.7l-8.7-8.7H208c2.2,0,4-1.8,4-4S210.2,146,208,146z"/></g></g><text x="0" y="315" fill="#000000" font-size="5px" font-weight="bold" font-family="'Helvetica Neue', Helvetica, Arial-Unicode, Arial, Sans-serif">Created by Angelo Troiano</text><text x="0" y="320" fill="#000000" font-size="5px" font-weight="bold" font-family="'Helvetica Neue', Helvetica, Arial-Unicode, Arial, Sans-serif">from the Noun Project</text></svg>